<svg width="375" height="143" viewBox="0 0 375 143" fill="none" xmlns="http://www.w3.org/2000/svg">
  <path d="M96.7402 58C94.4554 58 92.8384 57.5255 91.8893 56.5764C90.9754 55.6273 90.5184 54.1333 90.5184 52.0945V29.5273H97.6366V50.2491C97.6366 51.7255 98.3572 52.4636 99.7984 52.4636H101.591V58H96.7402ZM116.176 58.5273C114.208 58.5273 112.31 58.3867 110.482 58.1055C108.689 57.8242 107.23 57.4552 106.105 56.9982V51.2509C107.441 51.8133 108.9 52.2527 110.482 52.5691C112.099 52.8503 113.558 52.9909 114.858 52.9909C117.143 52.9909 118.795 52.8152 119.815 52.4636C120.869 52.1121 121.396 51.3915 121.396 50.3018C121.396 49.4582 121.115 48.8079 120.553 48.3509C120.025 47.8939 119.199 47.4897 118.075 47.1382C116.95 46.7515 115.509 46.2594 113.751 45.6618C111.185 44.7479 109.164 43.7285 107.687 42.6036C106.246 41.4436 105.525 39.7388 105.525 37.4891C105.525 34.9582 106.51 32.9194 108.478 31.3727C110.447 29.7909 113.417 29 117.389 29C119.041 29 120.693 29.123 122.345 29.3691C123.998 29.6151 125.351 29.9139 126.405 30.2654V35.96C125.245 35.4679 123.91 35.1164 122.398 34.9055C120.922 34.6594 119.586 34.5364 118.391 34.5364C116.739 34.5364 115.298 34.7297 114.067 35.1164C112.872 35.4679 112.275 36.2061 112.275 37.3309C112.275 38.0339 112.573 38.5964 113.171 39.0182C113.804 39.44 114.682 39.8267 115.807 40.1782C116.967 40.5297 118.338 40.9867 119.92 41.5491C121.889 42.217 123.47 42.92 124.665 43.6582C125.896 44.3964 126.775 45.2927 127.302 46.3473C127.864 47.4018 128.145 48.72 128.145 50.3018C128.145 53.0788 127.073 55.1527 124.929 56.5236C122.82 57.8594 119.902 58.5273 116.176 58.5273ZM103.782 25.6254L104.151 20.7745H113.8V16.5036H118.809V20.7745H121.814V16.5036H126.824V25.6254H103.782ZM120.76 14.2364V6.85454H126.56V14.2364H120.76ZM143.802 58.5273C141.447 58.5273 139.25 58.3164 137.211 57.8945C135.172 57.4376 133.45 56.9103 132.044 56.3127V41.3382H144.118L144.435 46.5582H138.793V52.3055C139.461 52.5164 140.251 52.6921 141.165 52.8327C142.115 52.9382 143.011 52.9909 143.855 52.9909C146.737 52.9909 148.758 52.3055 149.918 50.9345C151.078 49.5636 151.658 47.2085 151.658 43.8691C151.658 41.4788 151.342 39.6158 150.709 38.28C150.111 36.9091 149.11 35.9424 147.704 35.38C146.333 34.8176 144.452 34.5364 142.062 34.5364C140.515 34.5364 138.898 34.6594 137.211 34.9055C135.559 35.1164 133.959 35.4679 132.413 35.96V30.6345C133.995 30.1073 135.805 29.703 137.844 29.4218C139.882 29.1406 141.868 29 143.802 29C148.934 29 152.642 30.283 154.927 32.8491C157.247 35.38 158.407 39.0533 158.407 43.8691C158.407 48.5794 157.247 52.2 154.927 54.7309C152.642 57.2618 148.934 58.5273 143.802 58.5273ZM174.079 58.5273C173.13 58.5273 172.11 58.457 171.021 58.3164C169.966 58.1758 169.035 57.9824 168.226 57.7364L160.211 38.2273H167.119L173.393 53.4655C176.03 53.4655 177.928 52.5867 179.088 50.8291C180.283 49.0364 180.881 46.3824 180.881 42.8673C180.881 40.7582 180.67 39.1061 180.248 37.9109C179.861 36.7158 179.211 35.8721 178.297 35.38C177.383 34.8527 176.118 34.5891 174.501 34.5891H172.339V29.5273H175.502C179.685 29.5273 182.744 30.6345 184.677 32.8491C186.645 35.0285 187.63 38.3679 187.63 42.8673C187.63 46.5582 187.05 49.5636 185.89 51.8836C184.73 54.1685 183.13 55.8558 181.091 56.9455C179.088 58 176.75 58.5273 174.079 58.5273ZM197.561 58C195.276 58 193.659 57.5255 192.71 56.5764C191.796 55.6273 191.339 54.1333 191.339 52.0945V29.5273H198.457V50.2491C198.457 51.7255 199.178 52.4636 200.619 52.4636H202.411V58H197.561ZM216.417 58.5273C214.624 58.5273 212.972 58.2461 211.46 57.6836C209.949 57.0861 208.736 56.137 207.822 54.8364C206.943 53.5006 206.504 51.743 206.504 49.5636C206.504 46.7164 207.471 44.537 209.404 43.0255C211.337 41.4788 214.114 40.7055 217.735 40.7055H225.802V39.3345C225.802 37.577 225.31 36.3467 224.326 35.6436C223.342 34.9055 221.602 34.5364 219.106 34.5364C217.383 34.5364 215.749 34.6594 214.202 34.9055C212.691 35.1164 211.179 35.4679 209.668 35.96V30.6345C211.109 30.1776 212.779 29.7909 214.677 29.4745C216.575 29.1582 218.438 29 220.266 29C224.519 29 227.683 29.8964 229.757 31.6891C231.866 33.4818 232.92 36.2764 232.92 40.0727V58H225.802V45.9255H218.157C216.645 45.9255 215.45 46.1891 214.571 46.7164C213.692 47.2436 213.253 48.1927 213.253 49.5636C213.253 50.8642 213.64 51.7606 214.413 52.2527C215.186 52.7448 216.487 52.9909 218.315 52.9909C218.983 52.9909 219.633 52.9558 220.266 52.8855C220.934 52.8152 221.496 52.7097 221.953 52.5691V57.7891C221.285 58 220.459 58.1758 219.475 58.3164C218.526 58.457 217.506 58.5273 216.417 58.5273ZM225.567 25.6254V16.9254H232.685V25.6254H225.567ZM249.241 58V40.4945C249.241 38.5964 248.872 37.1376 248.134 36.1182C247.396 35.0636 245.92 34.5364 243.705 34.5364C242.545 34.5364 241.315 34.677 240.014 34.9582C238.714 35.2042 237.554 35.5206 236.534 35.9073V30.6873C237.589 30.1951 238.889 29.7909 240.436 29.4745C241.983 29.1582 243.529 29 245.076 29C249.083 29 251.966 29.8612 253.723 31.5836C255.481 33.2709 256.36 35.9073 256.36 39.4927V58H249.241Z" fill="white" />
  <path d="M128.948 106.527C124.695 106.527 121.496 105.543 119.352 103.575C117.207 101.606 116.135 98.917 116.135 95.5073V93.7145C116.135 92.5194 116.364 91.4473 116.821 90.4982C117.278 89.5491 117.787 88.7055 118.35 87.9673C118.947 87.2291 119.475 86.5436 119.932 85.9109C120.389 85.2782 120.617 84.6806 120.617 84.1182C120.617 83.5909 120.494 83.2394 120.248 83.0636C120.002 82.8879 119.563 82.8 118.93 82.8H115.503L116.083 77.5273H123.464C126.382 77.5273 127.841 78.8806 127.841 81.5873C127.841 82.7824 127.612 83.8721 127.155 84.8564C126.698 85.8055 126.154 86.7194 125.521 87.5982C124.923 88.477 124.396 89.4085 123.939 90.3927C123.482 91.3418 123.254 92.4315 123.254 93.6618V95.9291C123.254 99.3036 125.152 100.991 128.948 100.991C132.815 100.991 134.748 99.2333 134.748 95.7182V77.5273H141.866V95.4018C141.866 98.8115 140.724 101.518 138.439 103.522C136.154 105.525 132.99 106.527 128.948 106.527ZM158.83 106.527C156.475 106.527 154.278 106.316 152.239 105.895C150.2 105.438 148.478 104.91 147.072 104.313V89.3382H159.146L159.463 94.5582H153.821V100.305C154.489 100.516 155.28 100.692 156.194 100.833C157.143 100.938 158.039 100.991 158.883 100.991C161.765 100.991 163.786 100.305 164.946 98.9345C166.106 97.5636 166.686 95.2085 166.686 91.8691C166.686 89.4788 166.37 87.6158 165.737 86.28C165.14 84.9091 164.138 83.9424 162.732 83.38C161.361 82.8176 159.48 82.5364 157.09 82.5364C155.543 82.5364 153.926 82.6594 152.239 82.9055C150.587 83.1164 148.988 83.4679 147.441 83.96V78.6345C149.023 78.1073 150.833 77.703 152.872 77.4218C154.911 77.1406 156.897 77 158.83 77C163.962 77 167.671 78.283 169.955 80.8491C172.275 83.38 173.435 87.0533 173.435 91.8691C173.435 96.5794 172.275 100.2 169.955 102.731C167.671 105.262 163.962 106.527 158.83 106.527ZM189.107 106.527C188.158 106.527 187.139 106.457 186.049 106.316C184.994 106.176 184.063 105.982 183.254 105.736L175.24 86.2273H182.147L188.422 101.465C191.058 101.465 192.956 100.587 194.116 98.8291C195.311 97.0364 195.909 94.3824 195.909 90.8673C195.909 88.7582 195.698 87.1061 195.276 85.9109C194.889 84.7158 194.239 83.8721 193.325 83.38C192.411 82.8527 191.146 82.5891 189.529 82.5891H187.367V77.5273H190.531C194.714 77.5273 197.772 78.6345 199.705 80.8491C201.674 83.0285 202.658 86.3679 202.658 90.8673C202.658 94.5582 202.078 97.5636 200.918 99.8836C199.758 102.168 198.159 103.856 196.12 104.945C194.116 106 191.779 106.527 189.107 106.527ZM206.209 106V88.3364C206.209 84.8915 207.263 82.1497 209.372 80.1109C211.517 78.037 214.944 77 219.654 77C224.365 77 227.774 78.037 229.883 80.1109C231.992 82.1497 233.047 84.8915 233.047 88.3364V106H225.929V87.8091C225.929 86.0515 225.366 84.7333 224.241 83.8545C223.152 82.9758 221.623 82.5364 219.654 82.5364C215.436 82.5364 213.327 84.2939 213.327 87.8091V92.9236C213.995 92.4315 214.733 92.0273 215.541 91.7109C216.385 91.3945 217.299 91.2364 218.283 91.2364H221.711L221.921 96.8782H218.125C217.141 96.8782 216.262 97.0188 215.489 97.3C214.715 97.5461 213.995 97.9152 213.327 98.4073V106H206.209ZM226.98 119.34V113.224H223.816L224.08 108.689H232.99V119.34H226.98ZM267.791 106.527C264.732 106.527 262.36 105.613 260.672 103.785C259.02 101.922 258.194 99.3388 258.194 96.0345V88.6527C258.194 86.4382 257.684 84.8739 256.665 83.96C255.681 83.0109 254.099 82.5364 251.92 82.5364C250.338 82.5364 248.879 82.7648 247.543 83.2218C246.243 83.6788 245.188 84.2588 244.38 84.9618V85.7L250.232 87.2818V91.6055C248.826 91.957 247.877 92.537 247.385 93.3455C246.928 94.1188 246.7 95.3315 246.7 96.9836V98.5127C246.7 99.2158 246.858 99.7255 247.174 100.042C247.491 100.323 247.983 100.464 248.651 100.464H251.445V106H245.012C243.395 106 242.077 105.473 241.058 104.418C240.074 103.364 239.581 102.028 239.581 100.411V96.9309C239.581 95.3139 239.845 93.8903 240.372 92.66C240.935 91.3945 242.024 90.5158 243.641 90.0236L238.263 88.6V81.7982C239.704 80.5679 241.62 79.4606 244.011 78.4764C246.436 77.4921 249.195 77 252.289 77C254.96 77 257.245 77.3691 259.143 78.1073C261.041 78.8454 262.5 80.0758 263.52 81.7982C264.539 83.5206 265.049 85.8582 265.049 88.8109V95.6127C265.049 97.5461 265.471 98.9345 266.314 99.7782C267.193 100.587 268.476 100.991 270.163 100.991C271.499 100.991 272.747 100.71 273.907 100.147C275.102 99.5848 276.086 98.8818 276.86 98.0382V77.5273H283.978V106H277.44L277.123 103.205C275.928 104.295 274.557 105.121 273.011 105.684C271.499 106.246 269.759 106.527 267.791 106.527Z" fill="white" />
  <g clip-path="url(#clip0_217_153)">
    <path d="M91.2781 90.0844L107 88.5L91.2781 86.9156L101.272 74.7281L89.0844 84.7219L87.5 69L85.9156 84.7219L73.7281 74.7281L83.7219 86.9156L68 88.5L83.7219 90.0844L73.7281 102.272L85.9156 92.2781L87.5 108L89.0844 92.2781L101.272 102.272L91.2781 90.0844Z" fill="white" />
  </g>
  <defs>
    <clipPath id="clip0_217_153">
      <rect width="39" height="39" fill="white" transform="translate(68 69)" />
    </clipPath>
  </defs>
</svg>