<svg width="42" height="42" viewBox="0 0 42 42" fill="none" xmlns="http://www.w3.org/2000/svg">
<path d="M5.49431 5.69L3.08584 8.08151L12.601 17.5967V24.8899L8.19111 22.3797C7.90278 22.227 7.61444 22.1422 7.27522 22.1422C6.83423 22.1422 6.42717 22.2949 6.08794 22.5832L4.12046 24.4659L15.654 36.6439C16.6208 37.6616 17.9437 38.2383 19.3515 38.2383H29.562C30.6136 38.2383 31.5634 37.916 32.3776 37.3563L34.2772 39.2559L36.6687 36.8644L5.49431 5.69ZM29.562 34.846H19.3854C18.7239 34.846 18.2999 34.4559 18.1133 34.2354L12.3805 28.0616H15.9932V20.9889L29.7995 34.7952C29.7147 34.8121 29.6468 34.846 29.562 34.846ZM24.1854 19.5811H24.4737V6.43629C24.4737 5.87399 24.6971 5.33473 25.0947 4.93713C25.4923 4.53952 26.0316 4.31615 26.5939 4.31615C27.1561 4.31615 27.6954 4.53952 28.093 4.93713C28.4906 5.33473 28.714 5.87399 28.714 6.43629V19.5811H30.4101V9.8285C30.4101 9.2662 30.6335 8.72694 31.0311 8.32934C31.4287 7.93173 31.9679 7.70836 32.5302 7.70836C33.0925 7.70836 33.6318 7.93173 34.0294 8.32934C34.427 8.72694 34.6504 9.2662 34.6504 9.8285V30.0461L31.2581 26.6539V22.9733H27.5776L24.1854 19.5811ZM22.7776 18.1733V4.74018C22.7776 4.17789 22.5542 3.63862 22.1566 3.24102C21.759 2.84342 21.2198 2.62005 20.6575 2.62005C20.0952 2.62005 19.5559 2.84342 19.1583 3.24102C18.7607 3.63862 18.5374 4.17789 18.5374 4.74018V13.9331L22.7776 18.1733ZM16.8412 12.237V8.13239C16.8412 6.96208 15.8914 6.01226 14.7211 6.01226C13.5847 6.01226 12.6858 6.91119 12.6179 8.01366L16.8412 12.237Z" fill="white"/>
</svg>
