<svg width="41" height="33" viewBox="0 0 41 33" fill="none" xmlns="http://www.w3.org/2000/svg">
<path d="M2.96041 2.55719C3.48732 2.03703 4.33936 2.03703 4.86627 2.55719L8.39772 6.08089V3.95549C8.39772 3.21159 8.9975 2.61312 9.74303 2.61312C10.4886 2.61312 11.0883 3.21159 11.0883 3.95549V9.32494C11.0883 10.0688 10.4886 10.6673 9.74303 10.6673H4.36178C3.61625 10.6673 3.01646 10.0688 3.01646 9.32494C3.01646 8.58104 3.61625 7.98257 4.36178 7.98257H6.49746L2.96041 4.45887C2.4391 3.93311 2.4391 3.08295 2.96041 2.55719ZM9.60289 15.36C11.0099 12.5466 14.603 7.98257 20.0571 7.98257C25.5112 7.98257 29.1043 12.5466 30.5113 15.36C30.7243 15.7851 30.7243 16.2829 30.5113 16.7135C29.1043 19.5269 25.5112 24.0909 20.0571 24.0909C14.603 24.0909 11.0099 19.5269 9.60289 16.7135C9.38988 16.2884 9.38988 15.7907 9.60289 15.36ZM20.0571 19.6164C22.0358 19.6164 23.6446 18.0111 23.6446 16.0368C23.6446 14.0624 22.0358 12.4571 20.0571 12.4571C18.0784 12.4571 16.4696 14.0624 16.4696 16.0368C16.4696 18.0111 18.0784 19.6164 20.0571 19.6164ZM35.2479 2.55719C35.7748 2.03143 36.6269 2.03143 37.1482 2.55719C37.6695 3.08295 37.6751 3.93311 37.1482 4.45328L33.6167 7.97698H35.7524C36.4979 7.97698 37.0977 8.57545 37.0977 9.31934C37.0977 10.0632 36.4979 10.6617 35.7524 10.6617H30.3712C29.6256 10.6617 29.0258 10.0632 29.0258 9.31934V3.95549C29.0258 3.21159 29.6256 2.61312 30.3712 2.61312C31.1167 2.61312 31.7165 3.21159 31.7165 3.95549V6.08649L35.2479 2.56278V2.55719ZM2.96041 29.5163C2.4335 28.9906 2.4335 28.1404 2.96041 27.6202L6.49186 24.0965H4.36178C3.61625 24.0965 3.01646 23.4981 3.01646 22.7542C3.01646 22.0103 3.61625 21.4118 4.36178 21.4118H9.74303C10.4886 21.4118 11.0883 22.0103 11.0883 22.7542V28.1236C11.0883 28.8675 10.4886 29.466 9.74303 29.466C8.9975 29.466 8.39772 28.8675 8.39772 28.1236V25.987L4.86627 29.5163C4.33936 30.0421 3.48732 30.0421 2.96601 29.5163H2.96041ZM35.2479 29.5163L31.7165 25.9926V28.118C31.7165 28.8619 31.1167 29.4604 30.3712 29.4604C29.6256 29.4604 29.0258 28.8619 29.0258 28.118V22.7486C29.0258 22.0047 29.6256 21.4062 30.3712 21.4062H35.7524C36.4979 21.4062 37.0977 22.0047 37.0977 22.7486C37.0977 23.4925 36.4979 24.0909 35.7524 24.0909H33.6167L37.1482 27.6146C37.6751 28.1404 37.6751 28.9906 37.1482 29.5107C36.6213 30.0309 35.7692 30.0365 35.2479 29.5107V29.5163Z" fill="white"/>
</svg>
