<svg width="42" height="30" viewBox="0 0 42 30" fill="none" xmlns="http://www.w3.org/2000/svg">
<path d="M12.5332 14.9022C16.5265 14.9022 19.7586 11.6506 19.7586 7.63318C19.7586 3.61575 16.5265 0.364159 12.5332 0.364159C8.53983 0.364159 5.30775 3.61575 5.30775 7.63318C5.30775 11.6506 8.53983 14.9022 12.5332 14.9022ZM17.4877 16.9791H16.9523C15.6104 17.6281 14.1202 18.0175 12.5332 18.0175C10.9461 18.0175 9.46236 17.6281 8.11405 16.9791H7.57859C3.47559 16.9791 0.146744 20.328 0.146744 24.4558V26.3249C0.146744 28.0449 1.53376 29.4402 3.24335 29.4402H21.823C23.5326 29.4402 24.9196 28.0449 24.9196 26.3249V24.4558C24.9196 20.328 21.5907 16.9791 17.4877 16.9791ZM31.1128 14.9022C34.5319 14.9022 37.306 12.1114 37.306 8.67161C37.306 5.23181 34.5319 2.44102 31.1128 2.44102C27.6936 2.44102 24.9196 5.23181 24.9196 8.67161C24.9196 12.1114 27.6936 14.9022 31.1128 14.9022ZM34.2094 16.9791H33.9642C33.0675 17.2906 32.1192 17.4983 31.1128 17.4983C30.1064 17.4983 29.158 17.2906 28.2613 16.9791H28.0162C26.7001 16.9791 25.4873 17.362 24.4228 17.9786C25.9969 19.6855 26.984 21.9506 26.984 24.4558V26.948C26.984 27.0908 26.9517 27.2271 26.9453 27.3634H38.3382C40.0478 27.3634 41.4348 25.968 41.4348 24.2481C41.4348 20.2307 38.2027 16.9791 34.2094 16.9791Z" fill="white"/>
</svg>
