<svg width="32" height="35" viewBox="0 0 32 35" fill="none" xmlns="http://www.w3.org/2000/svg">
<path d="M2.125 5.65672L16.0885 1.58142L30.038 5.65672V14.0136C30.038 22.7969 24.4167 29.8193 16.0838 32.5959C7.7487 29.8201 2.125 22.7953 2.125 14.0097V5.65672Z" stroke="white" stroke-width="3.10145" stroke-linejoin="round"/>
<path d="M16.0815 16.3135C18.2226 16.3135 19.9583 14.5778 19.9583 12.4367C19.9583 10.2956 18.2226 8.55984 16.0815 8.55984C13.9404 8.55984 12.2047 10.2956 12.2047 12.4367C12.2047 14.5778 13.9404 16.3135 16.0815 16.3135Z" stroke="white" stroke-width="3.10145" stroke-linecap="round" stroke-linejoin="round"/>
<path d="M22.2844 22.5163C22.2844 20.8712 21.6309 19.2934 20.4676 18.1302C19.3044 16.9669 17.7266 16.3134 16.0815 16.3134C14.4364 16.3134 12.8587 16.9669 11.6954 18.1302C10.5321 19.2934 9.87863 20.8712 9.87863 22.5163" stroke="white" stroke-width="3.10145" stroke-linecap="round" stroke-linejoin="round"/>
</svg>
