<svg width="49" height="49" viewBox="0 0 49 49" fill="none" xmlns="http://www.w3.org/2000/svg">
<path fill-rule="evenodd" clip-rule="evenodd" d="M17.6166 7.66607C17.6166 6.87564 17.9306 6.11759 18.4895 5.55868C19.0484 4.99977 19.8065 4.68577 20.5969 4.68577H28.5444C29.3348 4.68577 30.0929 4.99977 30.6518 5.55868C31.2107 6.11759 31.5247 6.87564 31.5247 7.66607H34.505C35.2954 7.66607 36.0535 7.98006 36.6124 8.53898C37.1713 9.09789 37.4853 9.85594 37.4853 10.6464V25.5479H35.4984V10.6464C35.4984 10.3829 35.3938 10.1302 35.2074 9.94391C35.0211 9.7576 34.7685 9.65294 34.505 9.65294H31.5247C31.5247 10.4434 31.2107 11.2014 30.6518 11.7603C30.0929 12.3192 29.3348 12.6332 28.5444 12.6332H20.5969C19.8065 12.6332 19.0484 12.3192 18.4895 11.7603C17.9306 11.2014 17.6166 10.4434 17.6166 9.65294H14.6363C14.3728 9.65294 14.1202 9.7576 13.9339 9.94391C13.7476 10.1302 13.6429 10.3829 13.6429 10.6464V38.4625C13.6429 38.726 13.7476 38.9787 13.9339 39.165C14.1202 39.3513 14.3728 39.4559 14.6363 39.4559H26.5575V41.4428H14.6363C13.8459 41.4428 13.0878 41.1288 12.5289 40.5699C11.97 40.011 11.656 39.2529 11.656 38.4625V10.6464C11.656 9.85594 11.97 9.09789 12.5289 8.53898C13.0878 7.98006 13.8459 7.66607 14.6363 7.66607H17.6166ZM20.5969 6.67264C20.3334 6.67264 20.0808 6.7773 19.8945 6.96361C19.7081 7.14991 19.6035 7.40259 19.6035 7.66607V9.65294C19.6035 9.91641 19.7081 10.1691 19.8945 10.3554C20.0808 10.5417 20.3334 10.6464 20.5969 10.6464H28.5444C28.8079 10.6464 29.0605 10.5417 29.2468 10.3554C29.4332 10.1691 29.5378 9.91641 29.5378 9.65294V7.66607C29.5378 7.40259 29.4332 7.14991 29.2468 6.96361C29.0605 6.7773 28.8079 6.67264 28.5444 6.67264H20.5969ZM23.5772 16.607V19.5873H20.5969V21.5741H23.5772V24.5544H25.5641V21.5741H28.5444V19.5873H25.5641V16.607H23.5772ZM28.5444 27.5347C28.2809 27.5347 28.0282 27.6394 27.8419 27.8257C27.6556 28.012 27.551 28.2647 27.551 28.5282V35.2726C27.551 36.4173 27.8337 37.5444 28.3738 38.5537C28.914 39.563 29.695 40.4233 30.6475 41.0583L33.9536 43.2638C34.1169 43.3727 34.3087 43.4308 34.505 43.4308C34.7012 43.4308 34.8931 43.3727 35.0563 43.2638L38.3625 41.0583C39.3148 40.4234 40.0957 39.5632 40.6359 38.5541C41.1761 37.545 41.4588 36.4182 41.459 35.2736V28.5282C41.459 28.2647 41.3543 28.012 41.168 27.8257C40.9817 27.6394 40.7291 27.5347 40.4656 27.5347H28.5444ZM38.1876 33.2043L34.2139 37.178C34.0276 37.3642 33.775 37.4688 33.5115 37.4688C33.2481 37.4688 32.9955 37.3642 32.8092 37.178L30.8223 35.1911L32.227 33.7864L33.5115 35.0709L36.7829 31.7995L38.1876 33.2043Z" fill="white"/>
</svg>
