<svg width="44" height="44" viewBox="0 0 44 44" fill="none" xmlns="http://www.w3.org/2000/svg">
<path d="M22.4076 19.9847C26.883 15.4851 38.0742 23.3574 22.4076 33.4808C6.74106 23.3574 17.9322 15.4851 22.4076 19.9847Z" fill="white"/>
<path d="M24.3091 5.24069C23.8047 4.73648 23.1208 4.45323 22.4076 4.45323C21.6944 4.45323 21.0105 4.73648 20.5061 5.24069L2.62874 23.1154C2.37659 23.3679 2.23507 23.7102 2.23532 24.0671C2.23557 24.4239 2.37757 24.7661 2.63009 25.0182C2.8826 25.2704 3.22494 25.4119 3.58179 25.4116C3.93864 25.4114 4.28078 25.2694 4.53293 25.0169L6.27038 23.2794V37.5152C6.27038 38.5851 6.69542 39.6113 7.452 40.3678C8.20858 41.1244 9.23472 41.5495 10.3047 41.5495H34.5105C35.5805 41.5495 36.6066 41.1244 37.3632 40.3678C38.1198 39.6113 38.5448 38.5851 38.5448 37.5152V23.2794L40.2823 25.0169C40.5344 25.2694 40.8766 25.4114 41.2334 25.4116C41.5903 25.4119 41.9326 25.2704 42.1851 25.0182C42.4376 24.7661 42.5796 24.4239 42.5799 24.0671C42.5801 23.7102 42.4386 23.3679 42.1865 23.1154L35.8553 16.7869V7.93023C35.8553 7.57358 35.7136 7.23153 35.4614 6.97934C35.2092 6.72714 34.8672 6.58546 34.5105 6.58546H31.821C31.4643 6.58546 31.1223 6.72714 30.8701 6.97934C30.6179 7.23153 30.4762 7.57358 30.4762 7.93023V11.4078L24.3091 5.24069ZM35.8553 20.5899V37.5152C35.8553 37.8718 35.7136 38.2139 35.4614 38.466C35.2092 38.7182 34.8672 38.8599 34.5105 38.8599H10.3047C9.94803 38.8599 9.60598 38.7182 9.35379 38.466C9.1016 38.2139 8.95991 37.8718 8.95991 37.5152V20.5899L22.4076 7.1422L35.8553 20.5899Z" fill="white"/>
</svg>
