<svg width="45" height="44" viewBox="0 0 45 44" fill="none" xmlns="http://www.w3.org/2000/svg">
<g clip-path="url(#clip0_217_181)">
<path d="M35.8981 24.7603C35.9345 24.6877 35.9703 24.6145 36.0047 24.5419L39.7569 16.6633V14.7133L39.496 14.3548C39.4466 14.2871 34.5515 7.56212 32.8929 5.35084C31.056 2.90163 29.2872 1.80949 27.1575 1.80949C25.4964 1.80949 23.8098 2.59906 22.1466 4.15622C21.7476 4.5312 21.3703 4.92857 21.0164 5.34641C20.6626 4.92854 20.2853 4.53114 19.8863 4.15613C18.2228 2.59897 16.5369 1.8094 14.8754 1.8094C12.7458 1.8094 10.9768 2.90154 9.14002 5.35075C7.4814 7.56212 2.58623 14.2871 2.53691 14.3547L2.27599 14.7133V16.6633L6.02723 24.5408C6.06227 24.6146 6.0981 24.688 6.13473 24.7608C7.10664 26.6935 8.60428 28.3126 10.4554 29.432C12.3022 30.5513 14.4206 31.1425 16.5801 31.1412H25.4526C27.6121 31.1425 29.7305 30.5513 31.5773 29.432C33.4285 28.3124 34.9262 26.6932 35.8981 24.7603ZM16.5803 28.4153C13.2014 28.4153 10.0576 26.501 8.57133 23.5388C8.54322 23.4828 8.51573 23.4265 8.48887 23.3699L5.00187 16.0474V15.6005C6.04112 14.1738 9.89449 8.88801 11.3207 6.9862C12.9405 4.82644 14.0266 4.53529 14.8754 4.53529C16.8442 4.53529 18.9139 6.95783 19.5439 7.88931L19.9489 8.49284H22.084L22.4889 7.88931C23.0728 7.01916 25.1836 4.53529 27.1575 4.53529C28.0063 4.53529 29.0924 4.82644 30.7121 6.98628C32.1383 8.88784 35.9918 14.1738 37.031 15.6005V16.0474L33.5435 23.3711C33.5167 23.4274 33.4894 23.4833 33.4618 23.5383C31.9753 26.501 28.8315 28.4153 25.4526 28.4153H16.5803Z" fill="white"/>
<path d="M26.8455 9.92831L25.9874 10.8989C25.9676 10.9215 23.9164 13.1503 21.0164 13.1503C18.1067 13.1503 16.0616 10.9169 16.0454 10.8989L15.1874 9.92831L8.06253 15.6091L11.8441 23.237L12.82 23.0976C18.2567 22.3206 23.7762 22.3206 29.2128 23.0976L30.1888 23.237L33.9703 15.6091L26.8455 9.92831ZM28.6186 20.2673C23.5706 19.6295 18.4623 19.6295 13.4143 20.2673L11.4818 16.3691L14.9609 13.5954C16.1173 14.5348 18.2527 15.8764 21.0164 15.8764C23.7801 15.8764 25.9156 14.5348 27.072 13.5954L30.5511 16.3693L28.6186 20.2673ZM30.1115 32.9766V35.7025C32.188 35.6998 34.2059 35.0134 35.8533 33.7494C37.5008 32.4853 38.6861 30.7139 39.2262 28.7089L36.5923 28.0031C36.2084 29.4289 35.3656 30.6886 34.1943 31.5875C33.0229 32.4864 31.5881 32.9746 30.1115 32.9766Z" fill="white"/>
<path d="M41.8591 29.4145C40.4685 34.5995 35.7291 38.4284 30.1115 38.4284V41.1543C36.9883 41.1543 42.79 36.4671 44.4923 30.1201L41.8591 29.4145Z" fill="white"/>
</g>
<defs>
<clipPath id="clip0_217_181">
<rect width="43.6141" height="43.6141" fill="white" transform="translate(0.913048 0.315216)"/>
</clipPath>
</defs>
</svg>
