<svg width="35" height="35" viewBox="0 0 35 35" fill="none" xmlns="http://www.w3.org/2000/svg">
  <path d="M32.7629 10.4964C32.4154 10.4964 24.4193 10.5463 17.2799 13.9508C10.1405 10.5463 2.14437 10.4964 1.79686 10.4964C1.3406 10.4964 0.903023 10.6776 0.580397 11.0002C0.257772 11.3229 0.0765228 11.7604 0.0765228 12.2167V29.2188C0.0765251 29.4496 0.122981 29.6781 0.213125 29.8906C0.303268 30.1031 0.435255 30.2953 0.601225 30.4557C0.936691 30.7791 1.42699 30.9804 1.85535 30.9374L2.07383 30.9357C3.24882 30.9357 9.46439 31.1043 16.5522 34.4193C16.5797 34.4331 16.6107 34.4279 16.6382 34.4383C16.8429 34.5226 17.058 34.5811 17.2799 34.5811C17.5018 34.5811 17.7168 34.5226 17.9233 34.4383C17.9508 34.4279 17.9818 34.4331 18.0093 34.4193C25.0971 31.1025 31.3127 30.9357 32.4876 30.9357L32.7061 30.9374C33.1156 30.9804 33.6231 30.7791 33.9602 30.4557C34.294 30.1305 34.4832 29.6833 34.4832 29.2188V12.2167C34.4832 11.7604 34.302 11.3229 33.9794 11.0002C33.6567 10.6776 33.2192 10.4964 32.7629 10.4964ZM3.51719 14.0213C6.07189 14.2123 11.054 14.8471 15.5595 16.9321V30.251C10.3985 28.2296 5.94287 27.6808 3.51719 27.5397V14.0213ZM31.0426 27.5397C28.6169 27.6808 24.1612 28.2296 19.0002 30.251V16.9321C23.5058 14.8471 28.4879 14.2123 31.0426 14.0213V27.5397Z" fill="white" />
  <path d="M17.2799 10.4964C20.1302 10.4964 22.4409 8.18574 22.4409 5.3354C22.4409 2.48505 20.1302 0.174393 17.2799 0.174393C14.4296 0.174393 12.1189 2.48505 12.1189 5.3354C12.1189 8.18574 14.4296 10.4964 17.2799 10.4964Z" fill="white" />
</svg>