<svg width="40" height="40" viewBox="0 0 40 40" fill="none" xmlns="http://www.w3.org/2000/svg">
<path d="M18.3122 28.1343C18.3122 28.6187 18.5047 29.0833 18.8472 29.4258C19.1897 29.7683 19.6542 29.9607 20.1386 29.9607C20.6229 29.9607 21.0875 29.7683 21.43 29.4258C21.7725 29.0833 21.9649 28.6187 21.9649 28.1343C21.9649 27.65 21.7725 27.1854 21.43 26.8429C21.0875 26.5004 20.6229 26.308 20.1386 26.308C19.6542 26.308 19.1897 26.5004 18.8472 26.8429C18.5047 27.1854 18.3122 27.65 18.3122 28.1343ZM18.921 16.5675V23.5685C18.921 23.7359 19.058 23.8729 19.2254 23.8729H21.0517C21.2192 23.8729 21.3561 23.7359 21.3561 23.5685V16.5675C21.3561 16.4001 21.2192 16.2631 21.0517 16.2631H19.2254C19.058 16.2631 18.921 16.4001 18.921 16.5675ZM37.0208 33.309L21.1925 5.91385C20.9566 5.50673 20.5495 5.30507 20.1386 5.30507C19.7276 5.30507 19.3167 5.50673 19.0846 5.91385L3.25633 33.309C2.78833 34.1232 3.37428 35.1353 4.31028 35.1353H35.9669C36.9029 35.1353 37.4888 34.1232 37.0208 33.309ZM7.2096 32.2474L20.1386 9.86712L33.0676 32.2474H7.2096Z" fill="white"/>
</svg>
